# xmcd
#
# Track frame offsets: 
#        150
#        19683
#        36715
#        59130
#        77572
#        106507
#        123594
#        132316
#        141730
#        164789
#        172278
#        194399
#
# Disc length: 2791 seconds
#
# Revision: 0
# Processed by: cddbd v1.5.2PL0 Copyright (c) Steve Scherf et al.
# Submitted via: ExactAudioCopy v0.99pb3
#
DISCID=bd0ae50c
DTITLE=Sam Carr's Delta Jukes - Let The Good Times Roll
DYEAR=2007
DGENRE=Blues
TTITLE0=Thank You Baby
TTITLE1=All Night Long
TTITLE2=Jimmy Reed Medley
TTITLE3=Fishing
TTITLE4=Good Man
TTITLE5=Why Do You Call
TTITLE6=That's Alright
TTITLE7=Hoover Den
TTITLE8=Little Red Rooster
TTITLE9=Big Boss Man
TTITLE10=Crawling King Snake
TTITLE11=Let The Good Times Roll
EXTD=
EXTT0=
EXTT1=
EXTT2=
EXTT3=
EXTT4=
EXTT5=
EXTT6=
EXTT7=
EXTT8=
EXTT9=
EXTT10=
EXTT11=
PLAYORDER=
